<mxfile host="app.diagrams.net" modified="2023-02-03T09:43:26.978Z" agent="5.0 (Windows NT 10.0; Win64; x64) AppleWebKit/537.36 (KHTML, like Gecko) Chrome/108.0.0.0 Safari/537.36" etag="tN0bzVLiwh-tiRz5abvu" version="20.8.16" type="github">
  <diagram name="第 1 页" id="QQo-HUpZXa1UP5yDIedz">
    <mxGraphModel dx="954" dy="576" grid="1" gridSize="10" guides="1" tooltips="1" connect="1" arrows="1" fold="1" page="1" pageScale="1" pageWidth="827" pageHeight="1169" math="0" shadow="0">
      <root>
        <mxCell id="0" />
        <mxCell id="1" parent="0" />
        <mxCell id="KHOPAXRLYXrZhb2-WAoe-1" value="浏览器" style="rounded=0;whiteSpace=wrap;html=1;fontSize=20;fontStyle=1" vertex="1" parent="1">
          <mxGeometry x="50" y="310" width="110" height="110" as="geometry" />
        </mxCell>
        <mxCell id="KHOPAXRLYXrZhb2-WAoe-2" value="&lt;div style=&quot;text-align: justify;&quot;&gt;&lt;/div&gt;" style="rounded=0;whiteSpace=wrap;html=1;align=left;" vertex="1" parent="1">
          <mxGeometry x="400" y="182.5" width="386" height="365" as="geometry" />
        </mxCell>
        <mxCell id="KHOPAXRLYXrZhb2-WAoe-4" value="&lt;font style=&quot;font-size: 20px;&quot;&gt;&lt;b&gt;servlet&lt;/b&gt;&lt;/font&gt;" style="rounded=0;whiteSpace=wrap;html=1;" vertex="1" parent="1">
          <mxGeometry x="430" y="220" width="100" height="30" as="geometry" />
        </mxCell>
        <mxCell id="KHOPAXRLYXrZhb2-WAoe-5" value="TomCat" style="text;html=1;strokeColor=none;fillColor=none;align=center;verticalAlign=middle;whiteSpace=wrap;rounded=0;fontSize=20;fontStyle=1" vertex="1" parent="1">
          <mxGeometry x="414" y="500" width="70" height="40" as="geometry" />
        </mxCell>
        <mxCell id="KHOPAXRLYXrZhb2-WAoe-6" value="" style="endArrow=classic;startArrow=classic;html=1;rounded=0;fontSize=20;exitX=0;exitY=0.5;exitDx=0;exitDy=0;entryX=0;entryY=0.5;entryDx=0;entryDy=0;" edge="1" parent="1" source="KHOPAXRLYXrZhb2-WAoe-2" target="KHOPAXRLYXrZhb2-WAoe-4">
          <mxGeometry width="50" height="50" relative="1" as="geometry">
            <mxPoint x="390" y="320" as="sourcePoint" />
            <mxPoint x="440" y="270" as="targetPoint" />
          </mxGeometry>
        </mxCell>
        <mxCell id="KHOPAXRLYXrZhb2-WAoe-7" value="" style="endArrow=classic;html=1;rounded=0;fontSize=20;exitX=1;exitY=0.25;exitDx=0;exitDy=0;" edge="1" parent="1" source="KHOPAXRLYXrZhb2-WAoe-1">
          <mxGeometry width="50" height="50" relative="1" as="geometry">
            <mxPoint x="170" y="370" as="sourcePoint" />
            <mxPoint x="400" y="360" as="targetPoint" />
          </mxGeometry>
        </mxCell>
        <mxCell id="KHOPAXRLYXrZhb2-WAoe-8" value="" style="endArrow=classic;html=1;rounded=0;fontSize=20;entryX=1;entryY=0.75;entryDx=0;entryDy=0;exitX=0;exitY=0.5;exitDx=0;exitDy=0;" edge="1" parent="1" source="KHOPAXRLYXrZhb2-WAoe-2" target="KHOPAXRLYXrZhb2-WAoe-1">
          <mxGeometry width="50" height="50" relative="1" as="geometry">
            <mxPoint x="410" y="400" as="sourcePoint" />
            <mxPoint x="411.93000000000006" y="346.53" as="targetPoint" />
          </mxGeometry>
        </mxCell>
        <mxCell id="KHOPAXRLYXrZhb2-WAoe-9" value="post-request" style="text;html=1;strokeColor=none;fillColor=none;align=center;verticalAlign=middle;whiteSpace=wrap;rounded=0;fontSize=20;" vertex="1" parent="1">
          <mxGeometry x="230" y="310" width="130" height="30" as="geometry" />
        </mxCell>
        <mxCell id="KHOPAXRLYXrZhb2-WAoe-11" value="post-response" style="text;html=1;strokeColor=none;fillColor=none;align=center;verticalAlign=middle;whiteSpace=wrap;rounded=0;fontSize=20;" vertex="1" parent="1">
          <mxGeometry x="230" y="380" width="130" height="30" as="geometry" />
        </mxCell>
        <mxCell id="KHOPAXRLYXrZhb2-WAoe-12" value="&lt;font style=&quot;font-size: 20px;&quot;&gt;&lt;b&gt;Add-servlet&lt;/b&gt;&lt;/font&gt;" style="rounded=0;whiteSpace=wrap;html=1;" vertex="1" parent="1">
          <mxGeometry x="650" y="215" width="120" height="40" as="geometry" />
        </mxCell>
        <mxCell id="KHOPAXRLYXrZhb2-WAoe-13" value="" style="endArrow=classic;html=1;rounded=0;fontSize=20;exitX=1;exitY=0.5;exitDx=0;exitDy=0;entryX=0;entryY=0.5;entryDx=0;entryDy=0;" edge="1" parent="1" source="KHOPAXRLYXrZhb2-WAoe-4" target="KHOPAXRLYXrZhb2-WAoe-12">
          <mxGeometry width="50" height="50" relative="1" as="geometry">
            <mxPoint x="540" y="120" as="sourcePoint" />
            <mxPoint x="590" y="70" as="targetPoint" />
          </mxGeometry>
        </mxCell>
        <mxCell id="KHOPAXRLYXrZhb2-WAoe-14" value="HTML" style="text;html=1;strokeColor=none;fillColor=none;align=center;verticalAlign=middle;whiteSpace=wrap;rounded=0;fontSize=20;" vertex="1" parent="1">
          <mxGeometry x="75" y="320" width="60" height="30" as="geometry" />
        </mxCell>
        <mxCell id="KHOPAXRLYXrZhb2-WAoe-16" value="xml配置" style="text;html=1;strokeColor=none;fillColor=none;align=center;verticalAlign=middle;whiteSpace=wrap;rounded=0;fontSize=20;" vertex="1" parent="1">
          <mxGeometry x="540" y="210" width="100" height="30" as="geometry" />
        </mxCell>
        <mxCell id="KHOPAXRLYXrZhb2-WAoe-17" value="ObjectDao" style="rounded=1;whiteSpace=wrap;html=1;fontSize=20;fontStyle=1" vertex="1" parent="1">
          <mxGeometry x="550" y="305" width="100" height="40" as="geometry" />
        </mxCell>
        <mxCell id="KHOPAXRLYXrZhb2-WAoe-18" value="" style="endArrow=classic;html=1;rounded=0;fontSize=20;exitX=0.5;exitY=1;exitDx=0;exitDy=0;entryX=0.5;entryY=0;entryDx=0;entryDy=0;" edge="1" parent="1" source="KHOPAXRLYXrZhb2-WAoe-12" target="KHOPAXRLYXrZhb2-WAoe-17">
          <mxGeometry width="50" height="50" relative="1" as="geometry">
            <mxPoint x="220" y="250" as="sourcePoint" />
            <mxPoint x="270" y="200" as="targetPoint" />
          </mxGeometry>
        </mxCell>
        <mxCell id="KHOPAXRLYXrZhb2-WAoe-19" value="&lt;font style=&quot;font-size: 13px;&quot;&gt;重写方法调用&lt;/font&gt;" style="text;html=1;strokeColor=none;fillColor=none;align=center;verticalAlign=middle;whiteSpace=wrap;rounded=0;fontSize=20;" vertex="1" parent="1">
          <mxGeometry x="660" y="270" width="80" height="30" as="geometry" />
        </mxCell>
        <mxCell id="KHOPAXRLYXrZhb2-WAoe-21" value="BaseDao" style="rounded=1;whiteSpace=wrap;html=1;fontSize=20;fontStyle=1" vertex="1" parent="1">
          <mxGeometry x="440" y="370" width="100" height="40" as="geometry" />
        </mxCell>
        <mxCell id="KHOPAXRLYXrZhb2-WAoe-22" value="JdbcUtils" style="rounded=1;whiteSpace=wrap;html=1;fontSize=20;fontStyle=1" vertex="1" parent="1">
          <mxGeometry x="440" y="460" width="100" height="40" as="geometry" />
        </mxCell>
        <mxCell id="KHOPAXRLYXrZhb2-WAoe-23" value="" style="endArrow=classic;html=1;rounded=0;fontSize=13;exitX=0.5;exitY=0;exitDx=0;exitDy=0;entryX=0;entryY=0.5;entryDx=0;entryDy=0;" edge="1" parent="1" source="KHOPAXRLYXrZhb2-WAoe-21" target="KHOPAXRLYXrZhb2-WAoe-17">
          <mxGeometry relative="1" as="geometry">
            <mxPoint x="260" y="460" as="sourcePoint" />
            <mxPoint x="360" y="460" as="targetPoint" />
          </mxGeometry>
        </mxCell>
        <mxCell id="KHOPAXRLYXrZhb2-WAoe-24" value="" style="shape=message;html=1;outlineConnect=0;fontSize=13;" vertex="1" parent="KHOPAXRLYXrZhb2-WAoe-23">
          <mxGeometry width="20" height="14" relative="1" as="geometry">
            <mxPoint x="-10" y="-7" as="offset" />
          </mxGeometry>
        </mxCell>
        <mxCell id="KHOPAXRLYXrZhb2-WAoe-25" value="" style="endArrow=classic;html=1;rounded=0;fontSize=13;exitX=0.5;exitY=0;exitDx=0;exitDy=0;entryX=0.5;entryY=1;entryDx=0;entryDy=0;" edge="1" parent="1" source="KHOPAXRLYXrZhb2-WAoe-22" target="KHOPAXRLYXrZhb2-WAoe-21">
          <mxGeometry relative="1" as="geometry">
            <mxPoint x="500" y="380" as="sourcePoint" />
            <mxPoint x="560" y="335" as="targetPoint" />
          </mxGeometry>
        </mxCell>
        <mxCell id="KHOPAXRLYXrZhb2-WAoe-26" value="" style="shape=message;html=1;outlineConnect=0;fontSize=13;" vertex="1" parent="KHOPAXRLYXrZhb2-WAoe-25">
          <mxGeometry width="20" height="14" relative="1" as="geometry">
            <mxPoint x="-10" y="-7" as="offset" />
          </mxGeometry>
        </mxCell>
        <mxCell id="KHOPAXRLYXrZhb2-WAoe-27" value="MySql" style="rounded=1;whiteSpace=wrap;html=1;fontSize=20;fontStyle=1" vertex="1" parent="1">
          <mxGeometry x="650" y="460" width="100" height="40" as="geometry" />
        </mxCell>
        <mxCell id="KHOPAXRLYXrZhb2-WAoe-28" value="" style="endArrow=classic;html=1;rounded=0;fontSize=13;exitX=0;exitY=0.5;exitDx=0;exitDy=0;entryX=1;entryY=0.5;entryDx=0;entryDy=0;" edge="1" parent="1" source="KHOPAXRLYXrZhb2-WAoe-27" target="KHOPAXRLYXrZhb2-WAoe-22">
          <mxGeometry relative="1" as="geometry">
            <mxPoint x="500" y="380" as="sourcePoint" />
            <mxPoint x="560" y="335" as="targetPoint" />
          </mxGeometry>
        </mxCell>
        <mxCell id="KHOPAXRLYXrZhb2-WAoe-29" value="" style="shape=message;html=1;outlineConnect=0;fontSize=13;" vertex="1" parent="KHOPAXRLYXrZhb2-WAoe-28">
          <mxGeometry width="20" height="14" relative="1" as="geometry">
            <mxPoint x="-10" y="-7" as="offset" />
          </mxGeometry>
        </mxCell>
        <mxCell id="KHOPAXRLYXrZhb2-WAoe-30" value="crud方法" style="text;html=1;strokeColor=none;fillColor=none;align=center;verticalAlign=middle;whiteSpace=wrap;rounded=0;fontSize=13;" vertex="1" parent="1">
          <mxGeometry x="470" y="315" width="60" height="30" as="geometry" />
        </mxCell>
        <mxCell id="KHOPAXRLYXrZhb2-WAoe-31" value="druid连接池" style="text;html=1;strokeColor=none;fillColor=none;align=center;verticalAlign=middle;whiteSpace=wrap;rounded=0;fontSize=13;" vertex="1" parent="1">
          <mxGeometry x="551.5" y="440" width="77" height="30" as="geometry" />
        </mxCell>
      </root>
    </mxGraphModel>
  </diagram>
</mxfile>
